<svg width="62" height="62" viewBox="0 0 62 62" fill="none" xmlns="http://www.w3.org/2000/svg">
<path d="M43.9864 34.0253L46.2283 35.7514C45.3752 37.0211 43.6094 37.8346 41.8238 37.8346C38.8081 37.8346 36.3876 35.4736 36.3876 32.6167C36.3876 29.72 38.7089 27.3789 41.5857 27.3789C44.0657 27.3789 45.9704 29.0455 46.5854 30.9104L40.9905 34.9181C41.2484 35.0173 41.5262 35.0371 41.8238 35.0371C42.6769 35.0371 43.53 34.7395 43.9864 34.0253ZM39.2446 32.6167C39.2446 32.8547 39.2644 33.073 39.324 33.2714L42.9745 30.6723C42.5777 30.3747 42.1214 30.1962 41.5857 30.1962C40.2961 30.1962 39.2446 31.208 39.2446 32.6167Z" fill="black"/>
<path d="M35.7001 22.6963V25.5929C34.3906 25.5929 33.5375 26.3865 33.5375 27.3587V27.5968H35.5017V30.1958H33.5375V37.616H30.7202V30.1958H29.3513V27.5968H30.7202V27.4579C30.7202 24.6803 32.982 22.6963 35.7001 22.6963Z" fill="black"/>
<path d="M26.4906 25.8313C25.6176 25.8313 24.8637 25.0972 24.8637 24.2243C24.8637 23.4307 25.6176 22.6768 26.4906 22.6768C27.4429 22.6768 28.177 23.4108 28.177 24.2243C28.177 25.0972 27.4429 25.8313 26.4906 25.8313ZM27.9191 27.5971V37.6163H25.1018V27.5971H27.9191Z" fill="black"/>
<path d="M14.7846 22.8354H17.8598V34.8386H23.8118V37.6162H14.7846V22.8354Z" fill="black"/>
<path d="M55.0769 47.5477H52.6961V50.7419C52.6961 51.8728 53.7278 52.3887 55.0174 52.3887V55.1861C52.0215 55.1861 49.8788 53.4203 49.8788 50.8213V47.5477H48.371V44.9487H49.8788V43.6392L52.6961 41.5957V44.9487H55.0769V47.5477Z" fill="black"/>
<path d="M45.8347 51.4964L48.037 53.2225C47.0846 54.4129 45.5768 55.1866 43.9301 55.1866C41.0533 55.1866 38.732 52.8257 38.732 49.9687C38.732 47.0721 41.0533 44.731 43.9301 44.731C45.5371 44.731 46.9854 45.5047 47.9576 46.6951L45.7157 48.441C45.2395 47.7863 44.5848 47.5482 43.9301 47.5482C42.6405 47.5482 41.589 48.5601 41.589 49.9687C41.589 51.3972 42.6405 52.3892 43.9301 52.3892C44.7237 52.3892 45.3982 52.0519 45.8347 51.4964Z" fill="black"/>
<path d="M34.3514 44.9492H37.1686V54.9684H34.3514V54.2542C33.9149 54.8295 32.8237 55.1866 31.911 55.1866C29.1731 55.1866 26.9907 52.8257 26.9907 49.9687C26.9907 47.0721 29.2326 44.731 31.911 44.731C32.8038 44.731 33.9149 45.1674 34.3514 45.6436V44.9492ZM32.1888 52.3892C33.4982 52.3892 34.4704 51.3972 34.4704 49.9687C34.4704 48.5601 33.4982 47.5482 32.1888 47.5482C30.8992 47.5482 29.8477 48.5601 29.8477 49.9687C29.8477 51.3972 30.8992 52.3892 32.1888 52.3892Z" fill="black"/>
<path d="M17.8599 54.9683H14.7847V40.1875H19.9232C23.3952 40.1875 26.0538 42.7865 26.0538 46.0006C26.0538 49.7901 23.5341 52.4089 19.6256 52.4089H17.8599V54.9683ZM17.8599 49.6313H19.5463C21.7287 49.6313 22.9587 48.3021 22.9587 46.2387C22.9587 44.4333 21.8675 42.9651 19.7248 42.9651H17.8599V49.6313Z" fill="black"/>
<rect x="1.12" y="1.12" width="59.76" height="59.76" stroke="black" stroke-width="2.24"/>
</svg>
